<svg xmlns="http://www.w3.org/2000/svg" viewBox="0 0 253.75 253.69"><defs><style>.cls-1{fill:#fff;}.cls-2{fill:#1e435d;}</style></defs><title>telegram</title><g id="Слой_2" data-name="Слой 2"><g id="Var1"><g id="Квадраты"><rect class="cls-1" width="253.75" height="253.69" rx="25" ry="25"/></g><g id="Иконки"><path id="telegram" class="cls-2" d="M193,63.25,49.58,117.57c-7.85,2.27-7.59,10-1.79,11.88l35.94,11.22,13.76,42.17c1.67,4.62,3,6.36,5.89,6.39,3,.05,4.15-1,7.27-3.81,3.65-3.42,9.2-8.82,18-17.35L166,195.69c6.88,3.8,11.84,1.83,13.56-6.39L203,73.35C205.54,63.27,199.62,60.27,193,63.25ZM89.38,138.1,171.1,86.82c4-2.7,5.29.31,3.47,2.4l-67.83,61-3.48,30.45Z"/></g></g></g></svg>