<svg xmlns="http://www.w3.org/2000/svg" viewBox="0 0 253.75 253.75"><defs><style>.cls-1{fill:#fff;}.cls-2{fill:#1e435d;}</style></defs><title>Twitter</title><g id="Слой_2" data-name="Слой 2"><g id="Var1"><g id="Квадраты"><rect class="cls-1" width="253.75" height="253.75" rx="25" ry="25"/></g><g id="Иконки"><path id="twitter" class="cls-2" d="M214.3,74.74a68,68,0,0,1-19.57,5.36,34.17,34.17,0,0,0,15-18.85,68.14,68.14,0,0,1-21.64,8.27A34.11,34.11,0,0,0,130,100.6,96.77,96.77,0,0,1,59.76,65a34.11,34.11,0,0,0,10.55,45.49,34,34,0,0,1-15.43-4.26c0,.14,0,.28,0,.43a34.1,34.1,0,0,0,27.34,33.41,34.08,34.08,0,0,1-9,1.2,34.66,34.66,0,0,1-6.41-.61,34.1,34.1,0,0,0,31.83,23.66A68.73,68.73,0,0,1,48.2,178.43a96.44,96.44,0,0,0,52.24,15.31c62.68,0,96.95-51.92,96.95-97,0-1.47,0-2.94-.09-4.4A69.54,69.54,0,0,0,214.3,74.74Z"/></g></g></g></svg>