<svg id="LOGO" xmlns="http://www.w3.org/2000/svg" viewBox="0 0 348.6 133.47"><defs><style>.cls-1{fill:red;}</style></defs><title>yandex_logo</title><g id="_Группа_" data-name="&lt;Группа&gt;"><path id="_Составной_контур_" data-name="&lt;Составной контур&gt;" class="cls-1" d="M130.36,168.07l-20,44.93H95.76l22-48c-10.33-5.25-17.21-14.76-17.21-32.31,0-24.59,15.57-36.89,34.1-36.89h18.86V213H140.85V168.07Zm10.49-61.65h-6.72c-10.17,0-20,6.72-20,26.23,0,18.86,9,24.93,20,24.93h6.72Z" transform="translate(-95.76 -95.76)"/><path id="_Составной_контур_2" data-name="&lt;Составной контур&gt;" d="M214.31,130.36V213H201.69V175.94h-19V213H169.88V130.36h12.78v35.09h19V130.36Zm65.75,98.87H268.59V213H233.17v16.23H221.69V202.51h5.08c7.55-17.55,8.37-43.13,8.37-65.1v-7H273.5v72.15h6.56Zm-19.18-88.54H246.61v1.47c0,17.38-.82,42.8-7.7,60.35h22Zm54.44,73.46c-17.06,0-27.55-13.61-27.55-39,0-26.56,7.38-45.91,24.92-45.91,13.78,0,22.8,10.33,22.8,38.37v7H301.05c0,18.69,5.25,28.53,15.41,28.53,7.22,0,13-3.28,16.24-5.57l2.95,9.83A32.54,32.54,0,0,1,315.32,214.15Zm-14.1-50h21.15c0-14.11-2.3-24.44-9.68-24.44C304.82,139.7,302,149.38,301.22,164.14Zm60.17,7.7V213H348.6V130.36h12.79v38.2l19.84-38.2h13l-20.5,38.86L397.14,213H383.2Zm37.39-.16c0-25.91,10-42.47,29.35-42.47,7.38,0,11.64,2,15.25,4.26l-1.8,12.14c-3.45-3-8.37-5.74-13.61-5.74-9.19,0-15.75,10.33-15.75,31.15,0,20.66,4.92,32.47,15.25,32.47a20.91,20.91,0,0,0,13.94-5.08l2.95,9.51a25,25,0,0,1-17.21,6.23C409.44,214.15,398.78,199.88,398.78,171.68Z" transform="translate(-95.76 -95.76)"/></g></svg>