<svg xmlns="http://www.w3.org/2000/svg" viewBox="0 0 253.75 253.75"><defs><style>.cls-1{fill:#fff;}.cls-2,.cls-3{fill:#1e435d;}.cls-3{fill-rule:evenodd;}</style></defs><title>youtube</title><g id="Слой_2" data-name="Слой 2"><g id="Var1"><g id="Квадраты"><rect class="cls-1" width="253.75" height="253.75" rx="25" ry="25"/></g><g id="Иконки"><g id="youtube"><path class="cls-2" d="M170.27,153.39q-4.12,0-4.13,6.31v4.21h8.24V159.7C174.38,155.49,173,153.39,170.27,153.39Z"/><path class="cls-2" d="M190.41,130.29a17.21,17.21,0,0,0-14.73-13.39c-16.9-1.89-34-1.9-51-1.89s-34.14,0-51,1.89a17.21,17.21,0,0,0-14.73,13.39c-2.37,10.32-2.4,21.59-2.4,32.22s0,21.89,2.37,32.21a17.22,17.22,0,0,0,14.73,13.39c16.9,1.89,34,1.9,51,1.89s34.13,0,51-1.89a17.22,17.22,0,0,0,14.73-13.39c2.37-10.32,2.39-21.59,2.39-32.21S192.78,140.61,190.41,130.29Zm-95.06,9.28H85.49V192H76.33V139.57H66.64V131H95.35ZM120.24,192H112v-5c-3.28,3.75-6.38,5.58-9.41,5.58-2.66,0-4.48-1.07-5.31-3.38a23.19,23.19,0,0,1-.72-6.76V146.53h8.23V180a27.31,27.31,0,0,0,.07,3.2c.2,1.28.83,1.93,1.93,1.93,1.65,0,3.38-1.28,5.21-3.86V146.53h8.24Zm31.29-13.64a36.4,36.4,0,0,1-.83,9.16c-1.1,3.38-3.31,5.1-6.59,5.1-2.92,0-5.76-1.62-8.51-5V192h-8.23V131h8.23v19.92c2.66-3.27,5.49-4.93,8.51-4.93,3.28,0,5.49,1.73,6.59,5.13a35.1,35.1,0,0,1,.83,9.14Zm31.08-7.59H166.14v8.06c0,4.21,1.38,6.31,4.21,6.31,2,0,3.21-1.1,3.68-3.31a54.67,54.67,0,0,0,.18-5.58h8.4v1.21c0,2.65-.1,4.48-.17,5.3a11.79,11.79,0,0,1-1.93,4.94c-2.28,3.3-5.66,4.92-10,4.92a11.81,11.81,0,0,1-10-4.65c-1.75-2.28-2.64-5.86-2.64-10.69V161.35c0-4.86.79-8.41,2.54-10.71a11.72,11.72,0,0,1,9.87-4.66,11.42,11.42,0,0,1,9.71,4.66c1.73,2.3,2.55,5.85,2.55,10.71Z"/><path class="cls-2" d="M139.71,153.39a5.93,5.93,0,0,0-4.11,2v27.7a5.88,5.88,0,0,0,4.11,2c2.37,0,3.58-2,3.58-6.14V159.6C143.29,155.49,142.08,153.39,139.71,153.39Z"/><path class="cls-3" d="M110.36,45.15H101l-6.29,24.2-6.55-24.2h-9.7c1.94,5.71,4,11.46,5.91,17.17A152.08,152.08,0,0,1,90,81.81v25h9.23v-25ZM135,91.9V75.82c0-4.91-.84-8.5-2.58-10.82A12.36,12.36,0,0,0,113,65c-1.76,2.32-2.6,5.91-2.6,10.82V91.9c0,4.88.84,8.5,2.6,10.8a12.36,12.36,0,0,0,19.4,0C134.18,100.4,135,96.78,135,91.9Zm-8.32,1.56c0,4.25-1.29,6.38-4,6.38s-4-2.13-4-6.38V74.15c0-4.25,1.29-6.36,4-6.36s4,2.11,4,6.36Zm39.09,13.3V60.85h-8.33V95.94c-1.84,2.61-3.59,3.9-5.25,3.9-1.12,0-1.77-.66-2-2a19.56,19.56,0,0,1-.1-3.24V60.85h-8.29V97.16a23.18,23.18,0,0,0,.73,6.82c.83,2.33,2.68,3.42,5.36,3.42,3,0,6.19-1.85,9.5-5.65v5Z"/></g></g></g></g></svg>